<?xml version="1.0" encoding="UTF-8"?>
<svg xmlns="http://www.w3.org/2000/svg" xmlns:xlink="http://www.w3.org/1999/xlink" width="494.231pt" height="714.899pt" viewBox="0 0 494.231 714.899" version="1.1">
<defs>
<clipPath id="clip1">
  <path d="M 27.832031 390.609375 L 403 390.609375 L 403 692.789063 L 27.832031 692.789063 Z "/>
</clipPath>
<clipPath id="clip2">
  <path d="M 27.832031 390.609375 L 435 390.609375 L 435 692.789063 L 27.832031 692.789063 Z "/>
</clipPath>
<clipPath id="clip3">
  <path d="M 27.832031 390.609375 L 462.671875 390.609375 L 462.671875 692.789063 L 27.832031 692.789063 Z "/>
</clipPath>
<clipPath id="clip4">
  <path d="M 212 390.609375 L 332 390.609375 L 332 628 L 212 628 Z "/>
</clipPath>
<clipPath id="clip5">
  <path d="M 243 390.609375 L 364 390.609375 L 364 628 L 243 628 Z "/>
</clipPath>
<clipPath id="clip6">
  <path d="M 385 390.609375 L 409 390.609375 L 409 628 L 385 628 Z "/>
</clipPath>
<clipPath id="clip7">
  <path d="M 95 390.609375 L 462.671875 390.609375 L 462.671875 692.789063 L 95 692.789063 Z "/>
</clipPath>
<clipPath id="clip8">
  <path d="M 35.199219 17 L 463 17 L 463 397.980469 L 35.199219 397.980469 Z "/>
</clipPath>
<clipPath id="clip9">
  <path d="M 35.199219 0 L 470.039063 0 L 470.039063 397.980469 L 35.199219 397.980469 Z "/>
</clipPath>
<clipPath id="clip10">
  <path d="M 35.199219 0 L 470.039063 0 L 470.039063 397.980469 L 35.199219 397.980469 Z "/>
</clipPath>
<clipPath id="clip11">
  <path d="M 35.199219 0 L 470.039063 0 L 470.039063 397.980469 L 35.199219 397.980469 Z "/>
</clipPath>
<clipPath id="clip12">
  <path d="M 243 216 L 268 216 L 268 397.980469 L 243 397.980469 Z "/>
</clipPath>
<clipPath id="clip13">
  <path d="M 318 275 L 409 275 L 409 397.980469 L 318 397.980469 Z "/>
</clipPath>
<clipPath id="clip14">
  <path d="M 439 275 L 463 275 L 463 397.980469 L 439 397.980469 Z "/>
</clipPath>
</defs>
<g id="surface1">
<path style=" stroke:none;fill-rule:nonzero;fill:rgb(19.999695%,19.999695%,39.99939%);fill-opacity:1;" d="M 13.089844 714.898438 L 13.089844 -0.0078125 L 484.78125 -0.0078125 L 484.78125 714.898438 Z "/>
<path style=" stroke:none;fill-rule:nonzero;fill:rgb(59.999084%,89.99939%,100%);fill-opacity:1;" d="M 35.199219 692.789063 L 35.199219 481.191406 L 42.570313 397.980469 L 455.300781 397.980469 L 462.671875 455.101563 L 462.671875 692.789063 L 35.199219 692.789063 "/>
<path style=" stroke:none;fill-rule:nonzero;fill:rgb(19.999695%,19.999695%,39.99939%);fill-opacity:1;" d="M 212.085938 655.9375 L 212.085938 582.234375 L 285.785156 582.234375 L 285.785156 655.9375 Z "/>
<path style=" stroke:none;fill-rule:nonzero;fill:rgb(59.999084%,89.99939%,100%);fill-opacity:1;" d="M 219.457031 648.566406 L 219.457031 589.605469 L 278.414063 589.605469 L 278.414063 648.566406 Z "/>
<path style=" stroke:none;fill-rule:nonzero;fill:rgb(19.999695%,19.999695%,39.99939%);fill-opacity:1;" d="M 226.824219 641.199219 L 226.824219 596.976563 L 271.046875 596.976563 L 271.046875 641.199219 Z "/>
<path style=" stroke:none;fill-rule:nonzero;fill:rgb(19.999695%,19.999695%,39.99939%);fill-opacity:1;" d="M 212.085938 685.417969 L 212.085938 663.308594 L 223.140625 663.308594 L 223.140625 685.417969 Z "/>
<path style=" stroke:none;fill-rule:nonzero;fill:rgb(19.999695%,19.999695%,39.99939%);fill-opacity:1;" d="M 232.964844 685.417969 L 232.964844 663.308594 L 244.019531 663.308594 L 244.019531 685.417969 Z "/>
<path style=" stroke:none;fill-rule:nonzero;fill:rgb(19.999695%,19.999695%,39.99939%);fill-opacity:1;" d="M 253.847656 685.417969 L 253.847656 663.308594 L 264.902344 663.308594 L 264.902344 685.417969 Z "/>
<path style=" stroke:none;fill-rule:nonzero;fill:rgb(19.999695%,19.999695%,39.99939%);fill-opacity:1;" d="M 274.730469 685.417969 L 274.730469 663.308594 L 285.785156 663.308594 L 285.785156 685.417969 Z "/>
<path style=" stroke:none;fill-rule:nonzero;fill:rgb(19.999695%,19.999695%,39.99939%);fill-opacity:1;" d="M 57.3125 655.9375 L 57.3125 622.773438 L 112.585938 622.773438 L 112.585938 655.9375 Z "/>
<path style=" stroke:none;fill-rule:nonzero;fill:rgb(19.999695%,19.999695%,39.99939%);fill-opacity:1;" d="M 134.699219 655.9375 L 134.699219 622.773438 L 189.972656 622.773438 L 189.972656 655.9375 Z "/>
<path style=" stroke:none;fill-rule:nonzero;fill:rgb(59.999084%,89.99939%,100%);fill-opacity:1;" d="M 80.894531 663.308594 L 80.894531 619.085938 L 89.003906 619.085938 L 89.003906 663.308594 Z "/>
<path style=" stroke:none;fill-rule:nonzero;fill:rgb(59.999084%,89.99939%,100%);fill-opacity:1;" d="M 158.28125 663.308594 L 158.28125 619.085938 L 166.390625 619.085938 L 166.390625 663.308594 Z "/>
<path style=" stroke:none;fill-rule:nonzero;fill:rgb(19.999695%,19.999695%,39.99939%);fill-opacity:1;" d="M 307.894531 655.9375 L 307.894531 622.773438 L 363.171875 622.773438 L 363.171875 655.9375 Z "/>
<path style=" stroke:none;fill-rule:nonzero;fill:rgb(19.999695%,19.999695%,39.99939%);fill-opacity:1;" d="M 385.28125 655.9375 L 385.28125 622.773438 L 440.558594 622.773438 L 440.558594 655.9375 Z "/>
<path style=" stroke:none;fill-rule:nonzero;fill:rgb(59.999084%,89.99939%,100%);fill-opacity:1;" d="M 331.480469 663.308594 L 331.480469 619.085938 L 339.589844 619.085938 L 339.589844 663.308594 Z "/>
<path style=" stroke:none;fill-rule:nonzero;fill:rgb(59.999084%,89.99939%,100%);fill-opacity:1;" d="M 408.867188 663.308594 L 408.867188 619.085938 L 416.976563 619.085938 L 416.976563 663.308594 Z "/>
<g clip-path="url(#clip1)" clip-rule="nonzero">
<path style="fill:none;stroke-width:9.07118;stroke-linecap:butt;stroke-linejoin:miter;stroke:rgb(19.999695%,19.999695%,39.99939%);stroke-opacity:1;stroke-miterlimit:10;" d="M 1.700062 29.763945 L 1.700062 58.1113 L -26.645791 86.457154 " transform="matrix(2.6,0,0,-2.6,64.6814,692.7886)"/>
</g>
<g clip-path="url(#clip2)" clip-rule="nonzero">
<path style="fill:none;stroke-width:9.07118;stroke-linecap:butt;stroke-linejoin:miter;stroke:rgb(19.999695%,19.999695%,39.99939%);stroke-opacity:1;stroke-miterlimit:10;" d="M 13.890567 29.763945 L 13.890567 62.363103 L -6.803543 83.62362 L -6.803543 113.387743 " transform="matrix(2.6,0,0,-2.6,64.6814,692.7886)"/>
</g>
<g clip-path="url(#clip3)" clip-rule="nonzero">
<path style="fill:none;stroke-width:9.07118;stroke-linecap:butt;stroke-linejoin:miter;stroke:rgb(19.999695%,19.999695%,39.99939%);stroke-opacity:1;stroke-miterlimit:10;" d="M 31.465687 29.763945 L 31.465687 79.371817 L 17.574462 93.261541 L 17.574462 116.222779 " transform="matrix(2.6,0,0,-2.6,64.6814,692.7886)"/>
<path style="fill:none;stroke-width:9.07118;stroke-linecap:butt;stroke-linejoin:miter;stroke:rgb(19.999695%,19.999695%,39.99939%);stroke-opacity:1;stroke-miterlimit:10;" d="M 43.653187 29.763945 L 43.653187 84.190026 L 29.764966 98.07975 L 29.764966 116.222779 " transform="matrix(2.6,0,0,-2.6,64.6814,692.7886)"/>
</g>
<g clip-path="url(#clip4)" clip-rule="nonzero">
<path style="fill:none;stroke-width:9.07118;stroke-linecap:butt;stroke-linejoin:miter;stroke:rgb(19.999695%,19.999695%,39.99939%);stroke-opacity:1;stroke-miterlimit:10;" d="M 98.080772 29.763945 L 98.080772 56.693031 L 61.22981 56.693031 L 61.22981 116.222779 " transform="matrix(2.6,0,0,-2.6,64.6814,692.7886)"/>
</g>
<g clip-path="url(#clip5)" clip-rule="nonzero">
<path style="fill:none;stroke-width:9.07118;stroke-linecap:butt;stroke-linejoin:miter;stroke:rgb(19.999695%,19.999695%,39.99939%);stroke-opacity:1;stroke-miterlimit:10;" d="M 110.269774 29.763945 L 110.269774 68.882034 L 73.418813 68.882034 L 73.418813 116.222779 " transform="matrix(2.6,0,0,-2.6,64.6814,692.7886)"/>
</g>
<g clip-path="url(#clip6)" clip-rule="nonzero">
<path style="fill:none;stroke-width:9.07118;stroke-linecap:butt;stroke-linejoin:miter;stroke:rgb(19.999695%,19.999695%,39.99939%);stroke-opacity:1;stroke-miterlimit:10;" d="M 127.843392 29.763945 L 127.843392 113.387743 " transform="matrix(2.6,0,0,-2.6,64.6814,692.7886)"/>
</g>
<g clip-path="url(#clip7)" clip-rule="nonzero">
<path style="fill:none;stroke-width:9.07118;stroke-linecap:butt;stroke-linejoin:miter;stroke:rgb(19.999695%,19.999695%,39.99939%);stroke-opacity:1;stroke-miterlimit:10;" d="M 140.033897 29.763945 L 140.033897 85.040387 L 148.537502 93.543993 L 148.537502 116.222779 " transform="matrix(2.6,0,0,-2.6,64.6814,692.7886)"/>
</g>
<g clip-path="url(#clip8)" clip-rule="nonzero">
<path style="fill:none;stroke-width:9.07118;stroke-linecap:butt;stroke-linejoin:miter;stroke:rgb(59.999084%,89.99939%,100%);stroke-opacity:1;stroke-miterlimit:10;" d="M -6.803543 113.387743 L -6.803543 255.121517 L 148.537502 255.121517 L 148.537502 178.584558 " transform="matrix(2.6,0,0,-2.6,64.6814,692.7886)"/>
</g>
<path style=" stroke:none;fill-rule:nonzero;fill:rgb(59.999084%,89.99939%,100%);fill-opacity:1;" d="M 469.304688 228.46875 C 469.304688 218.292969 461.054688 210.042969 450.878906 210.042969 C 440.703125 210.042969 432.453125 218.292969 432.453125 228.46875 C 432.453125 238.644531 440.703125 246.894531 450.878906 246.894531 C 461.054688 246.894531 469.304688 238.644531 469.304688 228.46875 Z "/>
<g clip-path="url(#clip9)" clip-rule="nonzero">
<path style="fill:none;stroke-width:9.07118;stroke-linecap:butt;stroke-linejoin:miter;stroke:rgb(59.999084%,89.99939%,100%);stroke-opacity:1;stroke-miterlimit:10;" d="M 17.574462 113.387743 L 17.574462 198.428308 L 51.023981 231.876325 " transform="matrix(2.6,0,0,-2.6,64.6814,692.7886)"/>
</g>
<path style=" stroke:none;fill-rule:nonzero;fill:rgb(59.999084%,89.99939%,100%);fill-opacity:1;" d="M 215.769531 89.910156 C 215.769531 79.734375 207.519531 71.484375 197.34375 71.484375 C 187.167969 71.484375 178.917969 79.734375 178.917969 89.910156 C 178.917969 100.085938 187.167969 108.335938 197.34375 108.335938 C 207.519531 108.335938 215.769531 100.085938 215.769531 89.910156 Z "/>
<g clip-path="url(#clip10)" clip-rule="nonzero">
<path style="fill:none;stroke-width:9.07118;stroke-linecap:butt;stroke-linejoin:miter;stroke:rgb(59.999084%,89.99939%,100%);stroke-opacity:1;stroke-miterlimit:10;" d="M 29.764966 113.387743 L 29.764966 193.326144 L 43.937142 207.49832 L 102.332575 207.49832 " transform="matrix(2.6,0,0,-2.6,64.6814,692.7886)"/>
</g>
<path style=" stroke:none;fill-rule:nonzero;fill:rgb(59.999084%,89.99939%,100%);fill-opacity:1;" d="M 349.171875 153.292969 C 349.171875 143.117188 340.921875 134.867188 330.746094 134.867188 C 320.570313 134.867188 312.320313 143.117188 312.320313 153.292969 C 312.320313 163.46875 320.570313 171.71875 330.746094 171.71875 C 340.921875 171.71875 349.171875 163.46875 349.171875 153.292969 Z "/>
<g clip-path="url(#clip11)" clip-rule="nonzero">
<path style="fill:none;stroke-width:9.07118;stroke-linecap:butt;stroke-linejoin:miter;stroke:rgb(59.999084%,89.99939%,100%);stroke-opacity:1;stroke-miterlimit:10;" d="M 61.22981 113.387743 L 61.22981 128.694233 L 47.338584 139.748921 L 47.338584 178.584558 " transform="matrix(2.6,0,0,-2.6,64.6814,692.7886)"/>
</g>
<path style=" stroke:none;fill-rule:nonzero;fill:rgb(59.999084%,89.99939%,100%);fill-opacity:1;" d="M 206.1875 228.46875 C 206.1875 218.292969 197.9375 210.042969 187.761719 210.042969 C 177.585938 210.042969 169.335938 218.292969 169.335938 228.46875 C 169.335938 238.644531 177.585938 246.894531 187.761719 246.894531 C 197.9375 246.894531 206.1875 238.644531 206.1875 228.46875 Z "/>
<g clip-path="url(#clip12)" clip-rule="nonzero">
<path style="fill:none;stroke-width:9.07118;stroke-linecap:butt;stroke-linejoin:miter;stroke:rgb(59.999084%,89.99939%,100%);stroke-opacity:1;stroke-miterlimit:10;" d="M 73.418813 113.387743 L 73.418813 178.584558 " transform="matrix(2.6,0,0,-2.6,64.6814,692.7886)"/>
</g>
<path style=" stroke:none;fill-rule:nonzero;fill:rgb(59.999084%,89.99939%,100%);fill-opacity:1;" d="M 273.992188 228.46875 C 273.992188 218.292969 265.746094 210.042969 255.570313 210.042969 C 245.390625 210.042969 237.144531 218.292969 237.144531 228.46875 C 237.144531 238.644531 245.390625 246.894531 255.570313 246.894531 C 265.746094 246.894531 273.992188 238.644531 273.992188 228.46875 Z "/>
<g clip-path="url(#clip13)" clip-rule="nonzero">
<path style="fill:none;stroke-width:9.07118;stroke-linecap:butt;stroke-linejoin:miter;stroke:rgb(59.999084%,89.99939%,100%);stroke-opacity:1;stroke-miterlimit:10;" d="M 127.843392 113.387743 L 127.843392 155.907274 L 102.332575 155.907274 " transform="matrix(2.6,0,0,-2.6,64.6814,692.7886)"/>
</g>
<path style=" stroke:none;fill-rule:nonzero;fill:rgb(59.999084%,89.99939%,100%);fill-opacity:1;" d="M 349.171875 287.429688 C 349.171875 277.253906 340.921875 269.003906 330.746094 269.003906 C 320.570313 269.003906 312.320313 277.253906 312.320313 287.429688 C 312.320313 297.605469 320.570313 305.855469 330.746094 305.855469 C 340.921875 305.855469 349.171875 297.605469 349.171875 287.429688 Z "/>
<g clip-path="url(#clip14)" clip-rule="nonzero">
<path style="fill:none;stroke-width:9.07118;stroke-linecap:butt;stroke-linejoin:miter;stroke:rgb(59.999084%,89.99939%,100%);stroke-opacity:1;stroke-miterlimit:10;" d="M 148.537502 113.387743 L 148.537502 155.907274 " transform="matrix(2.6,0,0,-2.6,64.6814,692.7886)"/>
</g>
<path style=" stroke:none;fill-rule:nonzero;fill:rgb(59.999084%,89.99939%,100%);fill-opacity:1;" d="M 469.304688 287.429688 C 469.304688 277.253906 461.054688 269.003906 450.878906 269.003906 C 440.703125 269.003906 432.453125 277.253906 432.453125 287.429688 C 432.453125 297.605469 440.703125 305.855469 450.878906 305.855469 C 461.054688 305.855469 469.304688 297.605469 469.304688 287.429688 Z "/>
</g>
</svg>
