<?xml version="1.0" encoding="UTF-8"?>
<svg xmlns="http://www.w3.org/2000/svg" xmlns:xlink="http://www.w3.org/1999/xlink" width="580.231pt" height="689.385pt" viewBox="0 0 580.231 689.385" version="1.1">
<defs>
<clipPath id="clip1">
  <path d="M 60 45 L 518 45 L 518 635 L 60 635 Z "/>
</clipPath>
<clipPath id="clip2">
  <path d="M 60.628906 589.601563 L 60.628906 63.484375 C 60.628906 53.464844 68.75 45.34375 78.769531 45.34375 L 269.261719 45.34375 C 279.28125 45.34375 295.523438 45.613281 305.539063 45.949219 C 559.53125 54.417969 559.53125 317.472656 437.703125 414.9375 C 429.839844 421.226563 426.710938 433.785156 430.714844 442.992188 L 506.933594 618.292969 C 510.933594 627.496094 506.054688 634.957031 496.035156 634.957031 L 373.578125 634.957031 C 363.558594 634.957031 352.191406 627.496094 348.1875 618.292969 L 283.769531 470.203125 C 279.765625 461 268.398438 453.539063 258.378906 453.539063 L 237.511719 453.539063 C 227.492188 453.539063 219.371094 461.660156 219.371094 471.679688 L 219.371094 616.816406 C 219.371094 626.835938 211.25 634.957031 201.230469 634.957031 L 78.769531 634.957031 C 68.75 634.957031 60.628906 626.835938 60.628906 616.816406 L 60.628906 498.894531 "/>
</clipPath>
<clipPath id="clip3">
  <path d="M 196 45 L 469 45 L 469 363 L 196 363 Z "/>
</clipPath>
<clipPath id="clip4">
  <path d="M 232.976563 362.828125 L 468.824219 362.828125 L 468.824219 45.34375 L 296.476563 45.34375 L 196.695313 362.828125 "/>
</clipPath>
<clipPath id="clip5">
  <path d="M 310 341 L 409 341 L 409 440 L 310 440 Z "/>
</clipPath>
<clipPath id="clip6">
  <path d="M 251.121094 326.546875 L 523.25 507.964844 L 387.183594 689.382813 L 24.347656 689.382813 L 251.121094 371.898438 "/>
</clipPath>
</defs>
<g id="surface1">
<path style=" stroke:none;fill-rule:nonzero;fill:rgb(100%,100%,100%);fill-opacity:1;" d="M 15.273438 680.3125 L 15.273438 -0.0117188 L 559.53125 -0.0117188 L 559.53125 680.3125 Z "/>
<g clip-path="url(#clip1)" clip-rule="nonzero">
<g clip-path="url(#clip2)" clip-rule="nonzero">
<path style=" stroke:none;fill-rule:nonzero;fill:rgb(19.999695%,39.99939%,19.999695%);fill-opacity:1;" d="M 15.273438 680.3125 L 15.273438 -0.0117188 L 559.53125 -0.0117188 L 559.53125 680.3125 Z "/>
</g>
</g>
<path style="fill:none;stroke-width:5.66927;stroke-linecap:butt;stroke-linejoin:miter;stroke:rgb(100%,100%,100%);stroke-opacity:1;stroke-miterlimit:10;" d="M 70.866398 68.032383 L 70.866398 139.749912 C 70.866398 140.846104 69.978947 141.733555 68.882756 141.733555 L 5.669865 141.733555 " transform="matrix(3.2,0,0,-3.2,15.2744,680.313)"/>
<path style="fill:none;stroke-width:5.66927;stroke-linecap:butt;stroke-linejoin:miter;stroke:rgb(100%,100%,100%);stroke-opacity:1;stroke-miterlimit:10;" d="M 51.023869 141.733555 L 51.023869 182.269443 C 51.023869 183.365635 50.136418 184.254307 49.040227 184.254307 L 5.669865 184.254307 " transform="matrix(3.2,0,0,-3.2,15.2744,680.313)"/>
<path style="fill:none;stroke-width:5.66927;stroke-linecap:butt;stroke-linejoin:miter;stroke:rgb(100%,100%,100%);stroke-opacity:1;stroke-miterlimit:10;" d="M 5.669865 153.072666 L 39.684758 153.072666 " transform="matrix(3.2,0,0,-3.2,15.2744,680.313)"/>
<path style="fill:none;stroke-width:4.25183;stroke-linecap:butt;stroke-linejoin:miter;stroke:rgb(100%,100%,100%);stroke-opacity:1;stroke-miterlimit:10;" d="M 31.18134 166.396641 L 31.18134 173.766025 C 31.18134 174.862217 32.070012 175.749668 33.166203 175.749668 L 37.701115 175.749668 C 38.797307 175.749668 39.684758 174.862217 39.684758 173.766025 L 39.684758 166.396641 C 39.684758 165.300449 38.797307 164.411777 37.701115 164.411777 L 33.166203 164.411777 C 32.070012 164.411777 31.18134 165.300449 31.18134 166.396641 Z " transform="matrix(3.2,0,0,-3.2,15.2744,680.313)"/>
<path style="fill:none;stroke-width:4.25183;stroke-linecap:butt;stroke-linejoin:miter;stroke:rgb(100%,100%,100%);stroke-opacity:1;stroke-miterlimit:10;" d="M 11.338811 166.396641 L 11.338811 173.766025 C 11.338811 174.862217 12.227482 175.749668 13.322453 175.749668 L 17.858586 175.749668 C 18.954777 175.749668 19.842229 174.862217 19.842229 173.766025 L 19.842229 166.396641 C 19.842229 165.300449 18.954777 164.411777 17.858586 164.411777 L 13.322453 164.411777 C 12.227482 164.411777 11.338811 165.300449 11.338811 166.396641 Z " transform="matrix(3.2,0,0,-3.2,15.2744,680.313)"/>
<g clip-path="url(#clip3)" clip-rule="nonzero">
<g clip-path="url(#clip4)" clip-rule="nonzero">
<path style="fill:none;stroke-width:5.66927;stroke-linecap:butt;stroke-linejoin:miter;stroke:rgb(100%,100%,100%);stroke-opacity:1;stroke-miterlimit:10;" d="M 70.866398 116.22208 C 107.718205 127.561191 107.718205 158.742832 70.866398 170.080723 " transform="matrix(3.2,0,0,-3.2,15.2744,680.313)"/>
<path style="fill:none;stroke-width:5.66927;stroke-linecap:butt;stroke-linejoin:miter;stroke:rgb(100%,100%,100%);stroke-opacity:1;stroke-miterlimit:10;" d="M 70.866398 103.465732 C 124.726262 124.725498 124.726262 161.577305 70.866398 183.546299 " transform="matrix(3.2,0,0,-3.2,15.2744,680.313)"/>
</g>
</g>
<path style=" stroke:none;fill-rule:nonzero;fill:rgb(100%,100%,100%);fill-opacity:1;" d="M 301.007813 118.820313 C 301.007813 96.273438 282.734375 78 260.191406 78 C 237.644531 78 219.371094 96.273438 219.371094 118.820313 C 219.371094 141.363281 237.644531 159.636719 260.191406 159.636719 C 282.734375 159.636719 301.007813 141.363281 301.007813 118.820313 Z "/>
<path style=" stroke:none;fill-rule:nonzero;fill:rgb(19.999695%,39.99939%,19.999695%);fill-opacity:1;" d="M 278.332031 108.839844 C 278.332031 89.804688 262.902344 74.371094 243.863281 74.371094 C 224.824219 74.371094 209.394531 89.804688 209.394531 108.839844 C 209.394531 127.878906 224.824219 143.3125 243.863281 143.3125 C 262.902344 143.3125 278.332031 127.878906 278.332031 108.839844 Z "/>
<path style="fill:none;stroke-width:5.66927;stroke-linecap:butt;stroke-linejoin:miter;stroke:rgb(100%,100%,100%);stroke-opacity:1;stroke-miterlimit:10;" d="M 76.536564 62.363438 L 170.080266 62.363438 " transform="matrix(3.2,0,0,-3.2,15.2744,680.313)"/>
<path style=" stroke:none;fill-rule:nonzero;fill:rgb(100%,100%,100%);fill-opacity:1;" d="M 260.191406 553.320313 L 260.191406 507.964844 L 378.113281 507.964844 L 378.113281 553.320313 Z "/>
<path style=" stroke:none;fill-rule:nonzero;fill:rgb(100%,100%,100%);fill-opacity:1;" d="M 396.253906 553.320313 L 396.253906 507.964844 L 559.53125 507.964844 L 559.53125 553.320313 Z "/>
<path style=" stroke:none;fill-rule:nonzero;fill:rgb(100%,100%,100%);fill-opacity:1;" d="M 260.191406 616.816406 L 260.191406 571.460938 L 378.113281 571.460938 L 378.113281 616.816406 Z "/>
<path style=" stroke:none;fill-rule:nonzero;fill:rgb(100%,100%,100%);fill-opacity:1;" d="M 396.253906 616.816406 L 396.253906 571.460938 L 559.53125 571.460938 L 559.53125 616.816406 Z "/>
<path style="fill:none;stroke-width:5.66927;stroke-linecap:butt;stroke-linejoin:miter;stroke:rgb(100%,100%,100%);stroke-opacity:1;stroke-miterlimit:10;" d="M 102.04926 62.363438 L 102.04926 82.205967 " transform="matrix(3.2,0,0,-3.2,15.2744,680.313)"/>
<g clip-path="url(#clip5)" clip-rule="nonzero">
<g clip-path="url(#clip6)" clip-rule="nonzero">
<path style=" stroke:none;fill-rule:nonzero;fill:rgb(100%,100%,100%);fill-opacity:1;" d="M 408.953125 390.042969 C 408.953125 362.988281 387.023438 341.058594 359.972656 341.058594 C 332.917969 341.058594 310.988281 362.988281 310.988281 390.042969 C 310.988281 417.09375 332.917969 439.023438 359.972656 439.023438 C 387.023438 439.023438 408.953125 417.09375 408.953125 390.042969 Z "/>
</g>
</g>
<path style="fill:none;stroke-width:5.66927;stroke-linecap:butt;stroke-linejoin:miter;stroke:rgb(100%,100%,100%);stroke-opacity:1;stroke-miterlimit:10;" d="M 100.630803 79.370273 L 109.135441 92.126621 " transform="matrix(3.2,0,0,-3.2,15.2744,680.313)"/>
<path style=" stroke:none;fill-rule:nonzero;fill:rgb(100%,100%,100%);fill-opacity:1;" d="M 373.578125 385.507813 C 373.578125 380.496094 369.519531 376.433594 364.507813 376.433594 C 359.496094 376.433594 355.4375 380.496094 355.4375 385.507813 C 355.4375 390.515625 359.496094 394.578125 364.507813 394.578125 C 369.519531 394.578125 373.578125 390.515625 373.578125 385.507813 Z "/>
</g>
</svg>
